<?xml version="1.0" standalone="no"?>
<!DOCTYPE svg PUBLIC "-//W3C//DTD SVG 20010904//EN"
 "http://www.w3.org/TR/2001/REC-SVG-20010904/DTD/svg10.dtd">
<svg version="1.0" xmlns="http://www.w3.org/2000/svg"
 width="986.000000pt" height="986.000000pt" viewBox="0 0 986.000000 986.000000"
 preserveAspectRatio="xMidYMid meet">
<metadata>
Created by potrace 1.11, written by Peter Selinger 2001-2013
</metadata>
<g transform="translate(0.000000,986.000000) scale(0.100000,-0.100000)"
fill="#000000" stroke="none">
<path d="M9065 9853 c-28 -4 -504 -104 -2205 -463 -388 -82 -1294 -273 -2015
-425 -720 -152 -1332 -283 -1360 -292 -195 -61 -360 -224 -428 -423 l-22 -65
-3 -2334 -2 -2333 -23 6 c-79 24 -312 66 -421 76 -155 16 -454 8 -601 -15
-352 -55 -671 -167 -951 -332 -515 -306 -860 -756 -976 -1275 -20 -90 -23
-130 -23 -313 0 -184 3 -223 23 -314 130 -578 562 -1023 1200 -1235 272 -90
502 -122 825 -113 353 9 636 69 954 203 448 187 831 511 1061 895 142 236 216
476 242 774 6 78 10 1089 10 2876 l0 2755 863 182 c474 100 1406 297 2072 437
665 140 1213 255 1217 255 4 0 8 -833 8 -1851 l0 -1851 -22 5 c-334 77 -573
99 -838 78 -359 -30 -656 -110 -965 -261 -367 -179 -679 -446 -886 -760 -127
-191 -210 -387 -261 -610 -20 -92 -23 -131 -23 -310 0 -178 3 -219 23 -309 65
-291 196 -532 407 -749 309 -320 717 -517 1220 -588 145 -21 473 -24 620 -5
510 63 978 258 1330 552 385 323 622 720 692 1161 17 107 18 288 18 3283 l0
3170 -23 70 c-104 310 -407 494 -737 448z"/>
</g>
</svg>
